IKResults
version=1
nRows=105
nColumns=5
inDegrees=yes

Units are S.I. units (second, meters, Newtons, ...)
If the header above contains a line with 'inDegrees', this indicates whether rotational values are in degrees (yes) or radians (no).

endheader
time	r_shoulder_elev	r_shoulder_side	r_elbow_flex	r_elbow_rotation
      0.01670000	     97.41701761	     -4.10300063	      1.56746574	    -14.59074406
      0.03330000	     97.37964460	     -4.04592820	      1.59958981	    -14.57682930
      0.05000000	     97.36340963	     -3.98817221	      1.59572690	    -14.58076699
      0.06670000	     97.34994133	     -3.94136629	      1.59825420	    -14.58565898
      0.08330000	     97.36732211	     -3.94660331	      2.14649504	    -15.92936963
      0.10000000	     97.37782764	     -3.96490151	      2.71289964	    -17.18542781
      0.11670000	     97.39540670	     -4.00866824	      3.21264598	    -18.39576836
      0.13330000	     97.39302844	     -4.07347321	      3.68166681	    -19.43874137
      0.15000000	     97.37843313	     -4.15340612	      3.95157571	    -20.00643004
      0.16670000	     97.34065297	     -4.22994058	      4.00014640	    -19.98575834
      0.18330000	     97.29438736	     -4.31179543	      4.05785060	    -19.93756659
      0.20000000	     97.23715744	     -4.35090998	      3.75114887	    -18.97612621
      0.21670000	     97.20146836	     -4.42344321	      3.80515726	    -18.92396011
      0.23330000	     97.17082716	     -4.43850467	      3.48202571	    -18.01391440
      0.25000000	     97.15992553	     -4.49150275	      3.47726040	    -18.01293353
      0.26670000	     97.14145015	     -4.53905070	      3.46978594	    -18.01336472
      0.28330000	     97.12566404	     -4.57088159	      3.41256621	    -18.03875085
      0.30000000	     97.10591660	     -4.59156055	      3.34598994	    -18.07771552
      0.31670000	     97.06655740	     -4.61833088	      3.56839283	    -18.75019650
      0.33330000	     97.01892034	     -4.66128990	      3.80237808	    -19.47758716
      0.35000000	     96.95795853	     -4.70703561	      4.21081245	    -20.55251596
      0.36670000	     96.87160451	     -4.78528829	      4.74224588	    -21.79719439
      0.38330000	     96.77159371	     -4.89051092	      5.27175721	    -23.03762618
      0.40000000	     96.66544979	     -5.02041880	      5.74363669	    -24.06188973
      0.41670000	     96.55942862	     -5.16911494	      6.16410849	    -24.97195265
      0.43330000	     96.45476860	     -5.31773755	      6.51443113	    -25.72333272
      0.45000000	     96.35582966	     -5.44966939	      6.75636903	    -26.36183475
      0.46670000	     96.25538225	     -5.56483433	      6.87115902	    -26.73673369
      0.48330000	     96.16609490	     -5.65870825	      7.03757845	    -27.30078513
      0.50000000	     96.08301938	     -5.71318408	      7.20049923	    -27.76506170
      0.51670000	     96.00293495	     -5.75499776	      7.44646709	    -28.39447531
      0.53330000	     95.94329468	     -5.78949080	      7.77919167	    -29.17515045
      0.55000000	     95.88442706	     -5.80766240	      8.04892563	    -29.80300667
      0.56670000	     95.83041776	     -5.81378082	      8.31983705	    -30.39889159
      0.58330000	     95.79041609	     -5.79870631	      8.47654395	    -30.77415455
      0.60000000	     95.76398888	     -5.78356889	      8.58983629	    -31.11356436
      0.61670000	     95.73422613	     -5.78220717	      8.56093160	    -31.13149834
      0.63330000	     95.71929268	     -5.81277527	      8.52623748	    -31.16507003
      0.65000000	     95.69142397	     -5.88770307	      8.60087683	    -31.34452774
      0.66670000	     95.67244358	     -5.95085368	      8.60733416	    -31.33429436
      0.68330000	     95.64323326	     -5.99362300	      8.66062891	    -31.31486563
      0.70000000	     95.63017912	     -6.01153165	      8.65734771	    -31.31462286
      0.71670000	     95.61416877	     -6.00201725	      8.69272187	    -31.29997630
      0.73330000	     95.61349485	     -5.95235925	      8.52921043	    -30.92055552
      0.75000000	     95.61519704	     -5.85097322	      8.29305520	    -30.35878103
      0.76670000	     95.60733292	     -5.71936007	      7.97261191	    -29.50937970
      0.78330000	     95.60182818	     -5.55129510	      7.58401908	    -28.57852965
      0.80000000	     95.58230827	     -5.39064850	      7.27429649	    -27.76970712
      0.81670000	     95.53745206	     -5.24993696	      7.05222073	    -27.18546685
      0.83330000	     95.48555303	     -5.17241638	      7.06864077	    -27.17597130
      0.85000000	     95.40719176	     -5.10422514	      7.09936083	    -27.18574237
      0.86670000	     95.32914839	     -5.08427500	      7.47041269	    -28.06932327
      0.88330000	     95.23593315	     -5.03806396	      7.81594076	    -28.80344599
      0.90000000	     95.14626526	     -4.95075132	      8.14427542	    -29.50734814
      0.91670000	     95.03983035	     -4.82576624	      8.46125724	    -30.20947397
      0.93330000	     94.93419129	     -4.63051575	      8.60643640	    -30.51989736
      0.95000000	     94.83132162	     -4.35170641	      8.64417671	    -30.54249293
      0.96670000	     94.74201028	     -4.04760139	      8.62726587	    -30.57137975
      0.98330000	     94.66075067	     -3.73269569	      8.48647261	    -30.30297091
      1.00000000	     94.58231039	     -3.47684309	      8.47042453	    -30.32752735
      1.01670000	     94.50586809	     -3.28774945	      8.40092297	    -30.18106387
      1.03330000	     94.44048793	     -3.15459279	      8.36374026	    -30.19382993
      1.05000000	     94.38475398	     -3.06847850	      8.36939963	    -30.18101707
      1.06670000	     94.33707390	     -3.01875575	      8.37858009	    -30.18092179
      1.08330000	     94.29491586	     -2.96770623	      8.40438150	    -30.17886642
      1.10000000	     94.24934005	     -2.92658261	      8.48460918	    -30.17007982
      1.11670000	     94.19526919	     -2.91080258	      8.72991030	    -30.48861006
      1.13330000	     94.13579553	     -2.87669372	      9.00724600	    -30.85270798
      1.15000000	     94.09377758	     -2.83727441	      9.32273061	    -31.48527078
      1.16670000	     94.05054299	     -2.78929012	      9.63973866	    -32.11976851
      1.18330000	     94.01635210	     -2.74591969	      9.90977912	    -32.75605629
      1.20000000	     93.97426794	     -2.68371015	     10.09565334	    -33.11313724
      1.21670000	     93.95238078	     -2.61320091	     10.15148486	    -33.31325666
      1.23330000	     93.92771426	     -2.54397264	     10.14543797	    -33.32094390
      1.25000000	     93.91094467	     -2.46397724	      9.96920544	    -32.93680923
      1.26670000	     93.89928298	     -2.39031269	      9.81788082	    -32.50689136
      1.28330000	     93.88795094	     -2.30787041	      9.60121349	    -31.77890391
      1.30000000	     93.89438790	     -2.22796384	      9.27621678	    -30.87717140
      1.31670000	     93.88491530	     -2.17123352	      9.07261741	    -30.20847499
      1.33330000	     93.85463997	     -2.12570273	      8.87858333	    -29.58232787
      1.35000000	     93.82062533	     -2.08093228	      8.75500827	    -29.12147646
      1.36670000	     93.79818522	     -2.02119763	      8.60937270	    -28.67184499
      1.38330000	     93.76801541	     -1.96723041	      8.49057357	    -28.31512586
      1.40000000	     93.73915727	     -1.92425141	      8.52657252	    -28.29653346
      1.41670000	     93.72145948	     -1.87554123	      8.54200482	    -28.29093981
      1.43330000	     93.72698928	     -1.81837130	      8.51766813	    -28.31947961
      1.45000000	     93.73641304	     -1.78999622	      8.61756004	    -28.61636960
      1.46670000	     93.74836364	     -1.75008086	      8.59421127	    -28.61940939
      1.48330000	     93.76038035	     -1.70066997	      8.44405417	    -28.29469453
      1.50000000	     93.74347969	     -1.65725970	      8.32822891	    -27.83400810
      1.51670000	     93.70746435	     -1.63856428	      8.39360655	    -27.78924745
      1.53330000	     93.65635223	     -1.61521554	      8.46744922	    -27.74242872
      1.55000000	     93.61764834	     -1.60278187	      8.55095772	    -27.73101311
      1.56670000	     93.57928926	     -1.62020381	      8.75869386	    -28.10299010
      1.58330000	     93.56977976	     -1.65643376	      8.99089020	    -28.58046479
      1.60000000	     93.56761021	     -1.68659357	      9.15168287	    -28.97202273
      1.61670000	     93.59255239	     -1.73314307	      9.27639177	    -29.44904364
      1.63330000	     93.61694862	     -1.75566171	      9.32390218	    -29.71407238
      1.65000000	     93.62866184	     -1.77408202	      9.27232341	    -29.71768980
      1.66670000	     93.64245027	     -1.75193123	      9.04344152	    -29.20180380
      1.68330000	     93.63124258	     -1.72472922	      8.79522561	    -28.57103797
      1.70000000	     93.59623995	     -1.67079047	      8.54218739	    -27.77896534
      1.71670000	     93.56933931	     -1.60798344	      8.21827381	    -26.92824164
      1.73330000	     93.55224746	     -1.58257167	      8.00155785	    -26.41168847
      1.75000000	     93.53055715	     -1.56581803	      7.87738646	    -26.16673991
